<mxfile host="app.diagrams.net" modified="2022-08-05T16:26:03.129Z" agent="5.0 (X11)" etag="LYPx8nGI4QfyPJBcX-_o" version="16.6.7" type="github">
  <diagram id="prtHgNgQTEPvFCAcTncT" name="Page-1">
    <mxGraphModel dx="1355" dy="884" grid="1" gridSize="10" guides="1" tooltips="1" connect="1" arrows="1" fold="1" page="1" pageScale="1" pageWidth="850" pageHeight="750" math="0" shadow="0">
      <root>
        <mxCell id="0" />
        <mxCell id="1" parent="0" />
        <mxCell id="x5pgocKVDB9rGOrsrMcc-65" value="" style="rounded=1;whiteSpace=wrap;html=1;fontSize=13.7718;fillColor=#f1eef6;arcSize=2;strokeColor=#6c8ebf;" parent="1" vertex="1">
          <mxGeometry width="850" height="490" as="geometry" />
        </mxCell>
        <mxCell id="x5pgocKVDB9rGOrsrMcc-72" value="" style="rounded=1;whiteSpace=wrap;html=1;fontSize=13.7718;fillColor=#045a8d;" parent="1" vertex="1">
          <mxGeometry y="322.5" width="850" height="167.5" as="geometry" />
        </mxCell>
        <mxCell id="x5pgocKVDB9rGOrsrMcc-71" value="" style="rounded=1;whiteSpace=wrap;html=1;fontSize=13.7718;fillColor=#2b8cbe;" parent="1" vertex="1">
          <mxGeometry y="255" width="850" height="67.5" as="geometry" />
        </mxCell>
        <mxCell id="x5pgocKVDB9rGOrsrMcc-67" value="" style="rounded=1;whiteSpace=wrap;html=1;fontSize=13.7718;fillColor=#74a9cf;" parent="1" vertex="1">
          <mxGeometry y="187.5" width="850" height="67.5" as="geometry" />
        </mxCell>
        <mxCell id="x5pgocKVDB9rGOrsrMcc-68" value="" style="rounded=1;whiteSpace=wrap;html=1;fontSize=13.7718;fillColor=#a6bddb;" parent="1" vertex="1">
          <mxGeometry y="120" width="850" height="67.5" as="geometry" />
        </mxCell>
        <mxCell id="x5pgocKVDB9rGOrsrMcc-66" value="" style="rounded=1;whiteSpace=wrap;html=1;fontSize=13.7718;fillColor=#d0d1e6;" parent="1" vertex="1">
          <mxGeometry y="52.5" width="850" height="67.5" as="geometry" />
        </mxCell>
        <mxCell id="x5pgocKVDB9rGOrsrMcc-1" value="&lt;font style=&quot;font-size: 15px;&quot;&gt;Maritime Computer Vision&lt;/font&gt;" style="rounded=1;whiteSpace=wrap;html=1;fillColor=none;" parent="1" vertex="1">
          <mxGeometry x="315" y="6" width="220" height="40" as="geometry" />
        </mxCell>
        <mxCell id="x5pgocKVDB9rGOrsrMcc-2" value="Airborne" style="rounded=1;whiteSpace=wrap;html=1;" parent="1" vertex="1">
          <mxGeometry x="140" y="71.25" width="90" height="30" as="geometry" />
        </mxCell>
        <mxCell id="x5pgocKVDB9rGOrsrMcc-3" value="Surface" style="rounded=1;whiteSpace=wrap;html=1;" parent="1" vertex="1">
          <mxGeometry x="300" y="71.25" width="90" height="30" as="geometry" />
        </mxCell>
        <mxCell id="x5pgocKVDB9rGOrsrMcc-4" value="Satellite" style="rounded=1;whiteSpace=wrap;html=1;" parent="1" vertex="1">
          <mxGeometry x="460" y="71.25" width="90" height="30" as="geometry" />
        </mxCell>
        <mxCell id="x5pgocKVDB9rGOrsrMcc-5" value="Underwater" style="rounded=1;whiteSpace=wrap;html=1;" parent="1" vertex="1">
          <mxGeometry x="620" y="71.25" width="90" height="30" as="geometry" />
        </mxCell>
        <mxCell id="x5pgocKVDB9rGOrsrMcc-6" value="SaR" style="rounded=1;whiteSpace=wrap;html=1;" parent="1" vertex="1">
          <mxGeometry x="120" y="206.25" width="90" height="30" as="geometry" />
        </mxCell>
        <mxCell id="x5pgocKVDB9rGOrsrMcc-7" value="Surveillance" style="rounded=1;whiteSpace=wrap;html=1;" parent="1" vertex="1">
          <mxGeometry x="250" y="206.25" width="90" height="30" as="geometry" />
        </mxCell>
        <mxCell id="x5pgocKVDB9rGOrsrMcc-8" value="Inspection" style="rounded=1;whiteSpace=wrap;html=1;" parent="1" vertex="1">
          <mxGeometry x="380" y="206.25" width="90" height="30" as="geometry" />
        </mxCell>
        <mxCell id="x5pgocKVDB9rGOrsrMcc-10" value="Navigation" style="rounded=1;whiteSpace=wrap;html=1;" parent="1" vertex="1">
          <mxGeometry x="640" y="206.25" width="90" height="30" as="geometry" />
        </mxCell>
        <mxCell id="x5pgocKVDB9rGOrsrMcc-11" value="Monitoring" style="rounded=1;whiteSpace=wrap;html=1;" parent="1" vertex="1">
          <mxGeometry x="510" y="206.25" width="90" height="30" as="geometry" />
        </mxCell>
        <mxCell id="x5pgocKVDB9rGOrsrMcc-12" value="RGB" style="rounded=1;whiteSpace=wrap;html=1;" parent="1" vertex="1">
          <mxGeometry x="120" y="140" width="90" height="30" as="geometry" />
        </mxCell>
        <mxCell id="x5pgocKVDB9rGOrsrMcc-13" value="Hyper-/Multi-Spectral" style="rounded=1;whiteSpace=wrap;html=1;" parent="1" vertex="1">
          <mxGeometry x="250" y="138.75" width="90" height="30" as="geometry" />
        </mxCell>
        <mxCell id="x5pgocKVDB9rGOrsrMcc-14" value="Synthetic Apterture Radar" style="rounded=1;whiteSpace=wrap;html=1;" parent="1" vertex="1">
          <mxGeometry x="510" y="140" width="90" height="30" as="geometry" />
        </mxCell>
        <mxCell id="x5pgocKVDB9rGOrsrMcc-15" value="Depth" style="rounded=1;whiteSpace=wrap;html=1;" parent="1" vertex="1">
          <mxGeometry x="640" y="138.75" width="90" height="30" as="geometry" />
        </mxCell>
        <mxCell id="x5pgocKVDB9rGOrsrMcc-17" value="&lt;span dir=&quot;ltr&quot; role=&quot;presentation&quot; style=&quot;left: 442.794px; top: 869.774px; font-size: 13.7718px; font-family: sans-serif; transform: scaleX(0.898221);&quot;&gt;Object detection and tracking&lt;/span&gt;" style="rounded=1;whiteSpace=wrap;html=1;" parent="1" vertex="1">
          <mxGeometry x="40" y="330" width="134" height="35" as="geometry" />
        </mxCell>
        <mxCell id="x5pgocKVDB9rGOrsrMcc-18" value="Water texture" style="rounded=1;whiteSpace=wrap;html=1;" parent="1" vertex="1">
          <mxGeometry x="120" y="273.75" width="90" height="30" as="geometry" />
        </mxCell>
        <mxCell id="x5pgocKVDB9rGOrsrMcc-19" value="Lighting conditions" style="rounded=1;whiteSpace=wrap;html=1;" parent="1" vertex="1">
          <mxGeometry x="250" y="273.75" width="90" height="30" as="geometry" />
        </mxCell>
        <mxCell id="x5pgocKVDB9rGOrsrMcc-20" value="Small sizes" style="rounded=1;whiteSpace=wrap;html=1;" parent="1" vertex="1">
          <mxGeometry x="380" y="273.75" width="90" height="30" as="geometry" />
        </mxCell>
        <mxCell id="x5pgocKVDB9rGOrsrMcc-21" value="Limited hardware" style="rounded=1;whiteSpace=wrap;html=1;" parent="1" vertex="1">
          <mxGeometry x="510" y="273.75" width="90" height="30" as="geometry" />
        </mxCell>
        <mxCell id="x5pgocKVDB9rGOrsrMcc-22" value="Real-time requirements" style="rounded=1;whiteSpace=wrap;html=1;" parent="1" vertex="1">
          <mxGeometry x="640" y="273.75" width="90" height="30" as="geometry" />
        </mxCell>
        <mxCell id="x5pgocKVDB9rGOrsrMcc-23" value="&lt;span dir=&quot;ltr&quot; role=&quot;presentation&quot; style=&quot;left: 442.794px; top: 898.476px; font-size: 13.7718px; font-family: sans-serif; transform: scaleX(0.947335);&quot;&gt;Multi-modal image fusion&lt;/span&gt;" style="rounded=1;whiteSpace=wrap;html=1;" parent="1" vertex="1">
          <mxGeometry x="200" y="330" width="134" height="35" as="geometry" />
        </mxCell>
        <mxCell id="x5pgocKVDB9rGOrsrMcc-24" value="&lt;span dir=&quot;ltr&quot; style=&quot;left: 85.1101px ; top: 698.868px ; font-size: 13.7718px ; font-family: sans-serif ; transform: scalex(0.907928)&quot;&gt;Appl. of computer vision on USVs&lt;br&gt;&lt;/span&gt;" style="rounded=1;whiteSpace=wrap;html=1;" parent="1" vertex="1">
          <mxGeometry x="200" y="370" width="134" height="35" as="geometry" />
        </mxCell>
        <mxCell id="x5pgocKVDB9rGOrsrMcc-25" value="&lt;span dir=&quot;ltr&quot; role=&quot;presentation&quot; style=&quot;left: 85.1101px; top: 398.187px; font-size: 13.7718px; font-family: sans-serif; transform: scaleX(0.96598);&quot;&gt;Activity recognition&lt;/span&gt;" style="rounded=1;whiteSpace=wrap;html=1;fontSize=13.7718;" parent="1" vertex="1">
          <mxGeometry x="680" y="330" width="134" height="35" as="geometry" />
        </mxCell>
        <mxCell id="x5pgocKVDB9rGOrsrMcc-26" value="&lt;span dir=&quot;ltr&quot; role=&quot;presentation&quot; style=&quot;left: 85.1101px; top: 425.522px; font-size: 13.7718px; font-family: sans-serif; transform: scaleX(0.889027);&quot;&gt;Instance/Semantic segmentation&lt;/span&gt;" style="rounded=1;whiteSpace=wrap;html=1;" parent="1" vertex="1">
          <mxGeometry x="520" y="330" width="134" height="35" as="geometry" />
        </mxCell>
        <mxCell id="x5pgocKVDB9rGOrsrMcc-27" value="&lt;div&gt;&lt;span dir=&quot;ltr&quot; role=&quot;presentation&quot; style=&quot;left: 85.1101px; top: 370.852px; font-size: 13.7718px; font-family: sans-serif; transform: scaleX(0.92767);&quot;&gt;(Video) Anomaly detection&lt;/span&gt;&lt;/div&gt;" style="rounded=1;whiteSpace=wrap;html=1;" parent="1" vertex="1">
          <mxGeometry x="680" y="370" width="134" height="35" as="geometry" />
        </mxCell>
        <mxCell id="x5pgocKVDB9rGOrsrMcc-28" value="&lt;div&gt;&lt;span dir=&quot;ltr&quot; role=&quot;presentation&quot; style=&quot;left: 442.794px; top: 955.879px; font-size: 13.7718px; font-family: sans-serif; transform: scaleX(0.944521);&quot;&gt;Multi-modal &lt;br&gt;&lt;/span&gt;&lt;/div&gt;&lt;div&gt;&lt;span dir=&quot;ltr&quot; role=&quot;presentation&quot; style=&quot;left: 442.794px; top: 955.879px; font-size: 13.7718px; font-family: sans-serif; transform: scaleX(0.944521);&quot;&gt;vision sensors &lt;/span&gt;&lt;span dir=&quot;ltr&quot; role=&quot;presentation&quot; style=&quot;left: 454.5px; top: 972.405px; font-size: 13.7718px; font-family: sans-serif; transform: scaleX(0.872522);&quot;&gt;&lt;/span&gt;&lt;/div&gt;&lt;div&gt;&lt;span dir=&quot;ltr&quot; role=&quot;presentation&quot; style=&quot;left: 454.5px; top: 972.405px; font-size: 13.7718px; font-family: sans-serif; transform: scaleX(0.872522);&quot;&gt;&lt;/span&gt;&lt;/div&gt;" style="rounded=1;whiteSpace=wrap;html=1;" parent="1" vertex="1">
          <mxGeometry x="40" y="370" width="134" height="35" as="geometry" />
        </mxCell>
        <mxCell id="x5pgocKVDB9rGOrsrMcc-29" value="&lt;span dir=&quot;ltr&quot; role=&quot;presentation&quot; style=&quot;left: 442.794px; top: 927.178px; font-size: 13.7718px; font-family: sans-serif; transform: scaleX(0.955218);&quot;&gt;Multi-modal learning&lt;/span&gt;" style="rounded=1;whiteSpace=wrap;html=1;" parent="1" vertex="1">
          <mxGeometry x="360" y="330" width="134" height="35" as="geometry" />
        </mxCell>
        <mxCell id="x5pgocKVDB9rGOrsrMcc-30" value="&lt;span dir=&quot;ltr&quot; role=&quot;presentation&quot; style=&quot;left: 85.1101px; top: 452.856px; font-size: 13.7718px; font-family: sans-serif; transform: scaleX(0.871957);&quot;&gt;UAV Scene understanding&lt;br&gt;&lt;/span&gt;" style="rounded=1;whiteSpace=wrap;html=1;" parent="1" vertex="1">
          <mxGeometry x="680" y="450" width="134" height="35" as="geometry" />
        </mxCell>
        <mxCell id="x5pgocKVDB9rGOrsrMcc-31" value="&lt;span dir=&quot;ltr&quot; role=&quot;presentation&quot; style=&quot;left: 85.1101px; top: 562.195px; font-size: 13.7718px; font-family: sans-serif; transform: scaleX(0.900948);&quot;&gt;Embedded vision for drones&lt;/span&gt;" style="rounded=1;whiteSpace=wrap;html=1;" parent="1" vertex="1">
          <mxGeometry x="360" y="410" width="134" height="35" as="geometry" />
        </mxCell>
        <mxCell id="x5pgocKVDB9rGOrsrMcc-32" value="&lt;span dir=&quot;ltr&quot; role=&quot;presentation&quot; style=&quot;left: 85.1101px; top: 534.86px; font-size: 13.7718px; font-family: sans-serif; transform: scaleX(0.887023);&quot;&gt;Remote sensing &lt;/span&gt;" style="rounded=1;whiteSpace=wrap;html=1;" parent="1" vertex="1">
          <mxGeometry x="40" y="410" width="134" height="35" as="geometry" />
        </mxCell>
        <mxCell id="x5pgocKVDB9rGOrsrMcc-33" value="&lt;font style=&quot;font-size: 13.7718px;&quot;&gt;&lt;span dir=&quot;ltr&quot; role=&quot;presentation&quot; style=&quot;left: 85.1101px; top: 507.526px; font-size: 13.7718px; font-family: sans-serif; transform: scaleX(0.884762);&quot;&gt;Transfer learning &amp;amp; domain adaptation&lt;/span&gt;&lt;/font&gt;" style="rounded=1;whiteSpace=wrap;html=1;" parent="1" vertex="1">
          <mxGeometry x="520" y="370" width="134" height="35" as="geometry" />
        </mxCell>
        <mxCell id="x5pgocKVDB9rGOrsrMcc-34" value="&lt;span dir=&quot;ltr&quot; role=&quot;presentation&quot; style=&quot;left: 85.1101px; top: 480.191px; font-size: 13.7718px; font-family: sans-serif; transform: scaleX(0.887115);&quot;&gt;Synthetic data generation&lt;/span&gt;" style="rounded=1;whiteSpace=wrap;html=1;" parent="1" vertex="1">
          <mxGeometry x="200" y="410" width="134" height="35" as="geometry" />
        </mxCell>
        <mxCell id="x5pgocKVDB9rGOrsrMcc-35" value="&lt;span dir=&quot;ltr&quot; style=&quot;left: 85.1101px ; top: 671.533px ; font-size: 13.7718px ; font-family: sans-serif ; transform: scalex(0.913141)&quot;&gt;Collaborative monitoring on UAV&lt;br&gt;&lt;/span&gt;" style="rounded=1;whiteSpace=wrap;html=1;" parent="1" vertex="1">
          <mxGeometry x="200" y="450" width="134" height="35" as="geometry" />
        </mxCell>
        <mxCell id="x5pgocKVDB9rGOrsrMcc-36" value="&lt;span dir=&quot;ltr&quot; role=&quot;presentation&quot; style=&quot;left: 85.1101px; top: 644.199px; font-size: 13.7718px; font-family: sans-serif; transform: scaleX(0.920282);&quot;&gt;Visual collision avoidance&lt;/span&gt;" style="rounded=1;whiteSpace=wrap;html=1;" parent="1" vertex="1">
          <mxGeometry x="40" y="450" width="134" height="35" as="geometry" />
        </mxCell>
        <mxCell id="x5pgocKVDB9rGOrsrMcc-37" value="&lt;span dir=&quot;ltr&quot; role=&quot;presentation&quot; style=&quot;left: 85.1101px; top: 616.864px; font-size: 13.7718px; font-family: sans-serif; transform: scaleX(0.913428);&quot;&gt;Visual autonomous navigation &amp;amp; SLAM&lt;/span&gt;" style="rounded=1;whiteSpace=wrap;html=1;" parent="1" vertex="1">
          <mxGeometry x="360" y="450" width="134" height="35" as="geometry" />
        </mxCell>
        <mxCell id="x5pgocKVDB9rGOrsrMcc-38" value="&lt;span dir=&quot;ltr&quot; role=&quot;presentation&quot; style=&quot;left: 85.1101px; top: 589.53px; font-size: 13.7718px; font-family: sans-serif; transform: scaleX(0.891093);&quot;&gt;Real-time deep learning inference&lt;/span&gt;" style="rounded=1;whiteSpace=wrap;html=1;" parent="1" vertex="1">
          <mxGeometry x="520" y="410" width="134" height="35" as="geometry" />
        </mxCell>
        <mxCell id="x5pgocKVDB9rGOrsrMcc-39" value="&lt;span dir=&quot;ltr&quot; role=&quot;presentation&quot; style=&quot;left: 85.1101px; top: 698.868px; font-size: 13.7718px; font-family: sans-serif; transform: scaleX(0.907928);&quot;&gt;Appl. of computer vision on UAVs&lt;br&gt;&lt;/span&gt;" style="rounded=1;whiteSpace=wrap;html=1;" parent="1" vertex="1">
          <mxGeometry x="520" y="450" width="134" height="35" as="geometry" />
        </mxCell>
        <mxCell id="x5pgocKVDB9rGOrsrMcc-40" value="&lt;font style=&quot;font-size: 13.7718px;&quot;&gt;Underwater vision&lt;/font&gt;" style="rounded=1;whiteSpace=wrap;html=1;" parent="1" vertex="1">
          <mxGeometry x="680" y="410" width="130" height="35" as="geometry" />
        </mxCell>
        <mxCell id="x5pgocKVDB9rGOrsrMcc-73" value="&lt;font color=&quot;#FFFFFF&quot;&gt;Platforms&lt;/font&gt;" style="text;html=1;strokeColor=none;fillColor=none;align=center;verticalAlign=middle;whiteSpace=wrap;rounded=0;fontSize=13.7718;rotation=-45;" parent="1" vertex="1">
          <mxGeometry x="10" y="71.25" width="60" height="30" as="geometry" />
        </mxCell>
        <mxCell id="x5pgocKVDB9rGOrsrMcc-75" value="Sensors" style="text;html=1;strokeColor=none;fillColor=none;align=center;verticalAlign=middle;whiteSpace=wrap;rounded=0;fontSize=13.7718;rotation=-45;fontColor=#FFFFFF;" parent="1" vertex="1">
          <mxGeometry x="10" y="138.75" width="60" height="30" as="geometry" />
        </mxCell>
        <mxCell id="x5pgocKVDB9rGOrsrMcc-76" value="Applications" style="text;html=1;strokeColor=none;fillColor=none;align=center;verticalAlign=middle;whiteSpace=wrap;rounded=0;fontSize=13.7718;rotation=-45;fontColor=#FFFFFF;" parent="1" vertex="1">
          <mxGeometry x="10" y="206.25" width="60" height="30" as="geometry" />
        </mxCell>
        <mxCell id="x5pgocKVDB9rGOrsrMcc-78" value="&lt;div&gt;Challenges&lt;/div&gt;" style="text;html=1;strokeColor=none;fillColor=none;align=center;verticalAlign=middle;whiteSpace=wrap;rounded=0;fontSize=13.7718;rotation=-45;fontColor=#FFFFFF;" parent="1" vertex="1">
          <mxGeometry x="10" y="273.75" width="60" height="30" as="geometry" />
        </mxCell>
        <mxCell id="x5pgocKVDB9rGOrsrMcc-80" value="&lt;div&gt;Computer Vision Tasks&lt;br&gt;&lt;/div&gt;" style="text;html=1;strokeColor=none;fillColor=none;align=center;verticalAlign=middle;whiteSpace=wrap;rounded=0;fontSize=13.7718;rotation=-90;fontColor=#FFFFFF;" parent="1" vertex="1">
          <mxGeometry x="-60" y="391.25" width="160" height="30" as="geometry" />
        </mxCell>
        <mxCell id="yFucZcVxbXbiiCVr56E7-1" value="Infrared" style="rounded=1;whiteSpace=wrap;html=1;" vertex="1" parent="1">
          <mxGeometry x="380" y="140" width="90" height="30" as="geometry" />
        </mxCell>
        <mxCell id="yFucZcVxbXbiiCVr56E7-3" value="&lt;span dir=&quot;ltr&quot; style=&quot;left: 442.794px ; top: 927.178px ; font-size: 13.7718px ; font-family: sans-serif ; transform: scalex(0.955218)&quot;&gt;UAV Vision Proc. Hardware&lt;br&gt;&lt;/span&gt;" style="rounded=1;whiteSpace=wrap;html=1;" vertex="1" parent="1">
          <mxGeometry x="360" y="370" width="134" height="35" as="geometry" />
        </mxCell>
      </root>
    </mxGraphModel>
  </diagram>
</mxfile>
